<?xml version="1.0" encoding="UTF-8" standalone="no"?>
<!DOCTYPE svg PUBLIC "-//W3C//DTD SVG 1.1//EN" "http://www.w3.org/Graphics/SVG/1.1/DTD/svg11.dtd">
<svg width="100%" height="100%" viewBox="0 0 532 631" version="1.1" xmlns="http://www.w3.org/2000/svg" xmlns:xlink="http://www.w3.org/1999/xlink" xml:space="preserve" xmlns:serif="http://www.serif.com/" style="fill-rule:evenodd;clip-rule:evenodd;stroke-linejoin:round;stroke-miterlimit:2;">
    <g transform="matrix(0.997502,-0.0706385,0.0810183,1.14408,-222.613,-74.2763)">
        <rect x="214.361" y="108.47" width="490.94" height="520.728" style="fill:rgb(10,94,188);"/>
    </g>
    <g transform="matrix(0.997502,-0.0706385,0.00150534,0.0212573,-172.584,632.199)">
        <rect x="214.361" y="108.47" width="490.94" height="520.728" style="fill:rgb(255,204,51);"/>
    </g>
    <g transform="matrix(1,0,0,1,-172.099,20.3471)">
        <g transform="matrix(300,0,0,300,237.43,471.252)">
            <path d="M0.221,-0.074C0.221,-0.019 0.19,0.009 0.127,0.01C0.065,0.01 0.034,-0.018 0.034,-0.074L0.034,-0.77C0.034,-0.826 0.065,-0.854 0.127,-0.854C0.19,-0.854 0.221,-0.826 0.221,-0.77L0.221,-0.074ZM0.166,-0.77C0.166,-0.794 0.153,-0.806 0.128,-0.806L0.127,-0.806C0.102,-0.806 0.09,-0.794 0.09,-0.77L0.09,-0.074C0.09,-0.05 0.102,-0.039 0.127,-0.039C0.153,-0.039 0.166,-0.05 0.166,-0.074L0.166,-0.77Z" style="fill:white;fill-rule:nonzero;"/>
        </g>
        <g transform="matrix(300,0,0,300,314.041,471.252)">
            <path d="M0.039,-0.847L0.14,-0.847C0.197,-0.847 0.226,-0.819 0.226,-0.763L0.226,-0.483C0.226,-0.458 0.21,-0.438 0.178,-0.424C0.21,-0.41 0.226,-0.389 0.226,-0.364L0.226,-0.084C0.226,-0.028 0.196,-0 0.135,-0L0.039,-0L0.039,-0.847ZM0.095,-0.799L0.095,-0.448L0.124,-0.448C0.135,-0.448 0.142,-0.449 0.147,-0.45C0.163,-0.456 0.17,-0.467 0.17,-0.483L0.17,-0.763C0.17,-0.787 0.158,-0.799 0.133,-0.799L0.095,-0.799ZM0.095,-0.4L0.095,-0.048L0.133,-0.048C0.158,-0.048 0.17,-0.06 0.17,-0.084L0.17,-0.364C0.17,-0.381 0.163,-0.392 0.147,-0.397C0.142,-0.399 0.135,-0.4 0.124,-0.4L0.095,-0.4Z" style="fill:white;fill-rule:nonzero;"/>
        </g>
        <g transform="matrix(300,0,0,300,392.117,471.252)">
            <rect x="0.042" y="-0.847" width="0.056" height="0.846" style="fill:white;fill-rule:nonzero;"/>
        </g>
        <g transform="matrix(300,0,0,300,433.719,471.252)">
            <path d="M0.039,-0L0.039,-0.847L0.095,-0.847L0.095,-0.048L0.206,-0.048L0.206,-0L0.039,-0Z" style="fill:white;fill-rule:nonzero;"/>
        </g>
        <g transform="matrix(300,0,0,300,499.93,471.252)">
            <path d="M0.221,-0.074C0.221,-0.019 0.19,0.009 0.127,0.01C0.065,0.01 0.034,-0.018 0.034,-0.074L0.034,-0.77C0.034,-0.826 0.065,-0.854 0.127,-0.854C0.19,-0.854 0.221,-0.826 0.221,-0.77L0.221,-0.074ZM0.166,-0.77C0.166,-0.794 0.153,-0.806 0.128,-0.806L0.127,-0.806C0.102,-0.806 0.09,-0.794 0.09,-0.77L0.09,-0.074C0.09,-0.05 0.102,-0.039 0.127,-0.039C0.153,-0.039 0.166,-0.05 0.166,-0.074L0.166,-0.77Z" style="fill:white;fill-rule:nonzero;"/>
        </g>
    </g>
    <g transform="matrix(0.690193,0,0,0.690193,-87.3011,209.661)">
        <g transform="matrix(54.1667,0,0,54.1667,237.43,471.252)">
            <path d="M0.74,-0.61L0.709,-0.464L0.221,-0.464L0.2,-0.366L0.688,-0.366L0.605,0.024L-0.029,0.024L0.002,-0.122L0.49,-0.122L0.511,-0.22L0.022,-0.22L0.105,-0.61L0.74,-0.61Z" style="fill:white;fill-opacity:0.77;fill-rule:nonzero;"/>
        </g>
        <g transform="matrix(54.1667,0,0,54.1667,274.458,471.252)">
            <path d="M0.105,-0.61L0.74,-0.61L0.605,0.024L-0.029,0.024L0.105,-0.61ZM0.221,-0.464L0.148,-0.122L0.49,-0.122L0.563,-0.464L0.221,-0.464Z" style="fill:white;fill-opacity:0.77;fill-rule:nonzero;"/>
        </g>
        <g transform="matrix(54.1667,0,0,54.1667,311.486,471.252)">
            <path d="M0.74,-0.61L0.709,-0.464L0.221,-0.464L0.2,-0.366L0.688,-0.366L0.657,-0.22L0.169,-0.22L0.117,0.024L-0.029,0.024L0.105,-0.61L0.74,-0.61Z" style="fill:white;fill-opacity:0.77;fill-rule:nonzero;"/>
        </g>
        <g transform="matrix(54.1667,0,0,54.1667,348.514,471.252)">
            <path d="M0.465,-0.464L0.361,0.024L0.215,0.024L0.318,-0.464L0.074,-0.464L0.105,-0.61L0.74,-0.61L0.709,-0.464L0.465,-0.464Z" style="fill:white;fill-opacity:0.77;fill-rule:nonzero;"/>
        </g>
        <g transform="matrix(54.1667,0,0,54.1667,385.542,471.252)">
            <path d="M0.49,-0.122L0.594,-0.61L0.74,-0.61L0.605,0.024L-0.029,0.024L0.105,-0.61L0.252,-0.61L0.148,-0.122L0.246,-0.122L0.35,-0.61L0.496,-0.61L0.393,-0.122L0.49,-0.122Z" style="fill:white;fill-opacity:0.77;fill-rule:nonzero;"/>
        </g>
        <g transform="matrix(54.1667,0,0,54.1667,422.57,471.252)">
            <path d="M0.605,0.024L0.459,0.024L0.511,-0.22L0.169,-0.22L0.117,0.024L-0.029,0.024L0.105,-0.61L0.74,-0.61L0.605,0.024ZM0.542,-0.366L0.563,-0.464L0.221,-0.464L0.2,-0.366L0.542,-0.366Z" style="fill:white;fill-opacity:0.77;fill-rule:nonzero;"/>
        </g>
        <g transform="matrix(54.1667,0,0,54.1667,459.598,471.252)">
            <path d="M0.606,0.024L0.423,0.024L0.271,-0.22L0.218,-0.22L0.249,-0.366L0.542,-0.366L0.563,-0.464L0.221,-0.464L0.117,0.024L-0.029,0.024L0.105,-0.61L0.74,-0.61L0.657,-0.22L0.466,-0.22L0.606,0.024Z" style="fill:white;fill-opacity:0.77;fill-rule:nonzero;"/>
        </g>
        <g transform="matrix(54.1667,0,0,54.1667,496.626,471.252)">
            <path d="M0.605,0.024L-0.029,0.024L0.105,-0.61L0.74,-0.61L0.709,-0.464L0.221,-0.464L0.2,-0.366L0.688,-0.366L0.657,-0.22L0.169,-0.22L0.148,-0.122L0.637,-0.122L0.605,0.024Z" style="fill:white;fill-opacity:0.77;fill-rule:nonzero;"/>
        </g>
        <g transform="matrix(54.1667,0,0,54.1667,554.813,471.252)">
            <path d="M0.605,0.024L-0.029,0.024L0.105,-0.61L0.74,-0.61L0.709,-0.464L0.221,-0.464L0.2,-0.366L0.688,-0.366L0.657,-0.22L0.169,-0.22L0.148,-0.122L0.637,-0.122L0.605,0.024Z" style="fill:white;fill-opacity:0.77;fill-rule:nonzero;"/>
        </g>
        <g transform="matrix(54.1667,0,0,54.1667,591.841,471.252)">
            <path d="M0.205,-0.393L0.117,0.024L-0.029,0.024L0.105,-0.61L0.264,-0.61L0.505,-0.193L0.594,-0.61L0.74,-0.61L0.605,0.024L0.447,0.024L0.205,-0.393Z" style="fill:white;fill-opacity:0.77;fill-rule:nonzero;"/>
        </g>
        <g transform="matrix(54.1667,0,0,54.1667,628.869,471.252)">
            <path d="M0.74,-0.61L0.709,-0.464L0.221,-0.464L0.148,-0.122L0.49,-0.122L0.511,-0.22L0.218,-0.22L0.249,-0.366L0.688,-0.366L0.605,0.024L-0.029,0.024L0.105,-0.61L0.74,-0.61Z" style="fill:white;fill-opacity:0.77;fill-rule:nonzero;"/>
        </g>
        <g transform="matrix(54.1667,0,0,54.1667,665.897,471.252)">
            <path d="M0.117,0.024L-0.029,0.024L0.105,-0.61L0.252,-0.61L0.117,0.024Z" style="fill:white;fill-opacity:0.77;fill-rule:nonzero;"/>
        </g>
        <g transform="matrix(54.1667,0,0,54.1667,676.476,471.252)">
            <path d="M0.205,-0.393L0.117,0.024L-0.029,0.024L0.105,-0.61L0.264,-0.61L0.505,-0.193L0.594,-0.61L0.74,-0.61L0.605,0.024L0.447,0.024L0.205,-0.393Z" style="fill:white;fill-opacity:0.77;fill-rule:nonzero;"/>
        </g>
        <g transform="matrix(54.1667,0,0,54.1667,713.504,471.252)">
            <path d="M0.605,0.024L-0.029,0.024L0.105,-0.61L0.74,-0.61L0.709,-0.464L0.221,-0.464L0.2,-0.366L0.688,-0.366L0.657,-0.22L0.169,-0.22L0.148,-0.122L0.637,-0.122L0.605,0.024Z" style="fill:white;fill-opacity:0.77;fill-rule:nonzero;"/>
        </g>
        <g transform="matrix(54.1667,0,0,54.1667,750.532,471.252)">
            <path d="M0.605,0.024L-0.029,0.024L0.105,-0.61L0.74,-0.61L0.709,-0.464L0.221,-0.464L0.2,-0.366L0.688,-0.366L0.657,-0.22L0.169,-0.22L0.148,-0.122L0.637,-0.122L0.605,0.024Z" style="fill:white;fill-opacity:0.77;fill-rule:nonzero;"/>
        </g>
        <g transform="matrix(54.1667,0,0,54.1667,787.56,471.252)">
            <path d="M0.606,0.024L0.423,0.024L0.271,-0.22L0.218,-0.22L0.249,-0.366L0.542,-0.366L0.563,-0.464L0.221,-0.464L0.117,0.024L-0.029,0.024L0.105,-0.61L0.74,-0.61L0.657,-0.22L0.466,-0.22L0.606,0.024Z" style="fill:white;fill-opacity:0.77;fill-rule:nonzero;"/>
        </g>
    </g>
</svg>
