<?xml version="1.0" encoding="UTF-8" standalone="no"?>
<!DOCTYPE svg PUBLIC "-//W3C//DTD SVG 1.1//EN" "http://www.w3.org/Graphics/SVG/1.1/DTD/svg11.dtd">
<svg width="100%" height="100%" viewBox="0 0 363 215" version="1.1" xmlns="http://www.w3.org/2000/svg" xmlns:xlink="http://www.w3.org/1999/xlink" xml:space="preserve" xmlns:serif="http://www.serif.com/" style="fill-rule:evenodd;clip-rule:evenodd;stroke-linecap:round;stroke-linejoin:round;stroke-miterlimit:1.5;">
    <g transform="matrix(1,0,0,1,-171.935,-355.765)">
        <g transform="matrix(162.667,0,0,162.667,237.43,471.252)">
            <path d="M0.511,-0.246C0.511,-0.163 0.485,-0.098 0.434,-0.051C0.389,-0.009 0.335,0.011 0.271,0.011L0.27,0.011C0.199,0.011 0.142,-0.013 0.099,-0.061C0.058,-0.107 0.038,-0.166 0.038,-0.238C0.038,-0.312 0.059,-0.373 0.102,-0.421C0.146,-0.47 0.205,-0.495 0.278,-0.495C0.349,-0.495 0.406,-0.471 0.449,-0.423C0.49,-0.377 0.511,-0.318 0.511,-0.246ZM0.419,-0.243C0.419,-0.292 0.409,-0.333 0.387,-0.367C0.36,-0.409 0.323,-0.429 0.274,-0.429C0.226,-0.429 0.189,-0.409 0.162,-0.369C0.138,-0.334 0.125,-0.291 0.125,-0.241C0.125,-0.193 0.137,-0.151 0.161,-0.116C0.188,-0.075 0.225,-0.055 0.271,-0.055L0.272,-0.055C0.32,-0.055 0.357,-0.076 0.384,-0.116C0.408,-0.151 0.419,-0.194 0.419,-0.243Z" style="fill:rgb(0,109,220);fill-rule:nonzero;"/>
        </g>
        <g transform="matrix(162.667,0,0,162.667,326.706,471.252)">
            <path d="M0.514,-0.256C0.514,-0.183 0.494,-0.122 0.455,-0.073C0.411,-0.017 0.35,0.011 0.271,0.011C0.169,0.011 0.11,-0.031 0.094,-0.114C0.09,-0.135 0.087,-0.16 0.087,-0.189L0.087,-0.623C0.087,-0.637 0.078,-0.647 0.06,-0.651C0.05,-0.654 0.03,-0.655 0,-0.655L0,-0.71L0.175,-0.71L0.175,-0.396L0.176,-0.396C0.207,-0.462 0.257,-0.495 0.327,-0.495C0.375,-0.495 0.415,-0.477 0.448,-0.443C0.478,-0.412 0.498,-0.372 0.507,-0.322C0.512,-0.3 0.514,-0.278 0.514,-0.256ZM0.428,-0.258C0.428,-0.315 0.414,-0.359 0.386,-0.391C0.365,-0.414 0.339,-0.426 0.308,-0.426C0.265,-0.426 0.232,-0.404 0.207,-0.361C0.186,-0.326 0.175,-0.285 0.175,-0.239L0.174,-0.187C0.174,-0.166 0.176,-0.145 0.18,-0.126C0.19,-0.078 0.221,-0.055 0.273,-0.055C0.322,-0.055 0.361,-0.076 0.39,-0.12C0.416,-0.158 0.428,-0.204 0.428,-0.258Z" style="fill:rgb(0,109,220);fill-rule:nonzero;"/>
        </g>
        <g transform="matrix(162.667,0,0,162.667,416.459,471.252)">
            <path d="M0.212,-0.629C0.212,-0.613 0.207,-0.6 0.197,-0.589C0.186,-0.578 0.173,-0.573 0.156,-0.573L0.154,-0.573C0.138,-0.573 0.125,-0.578 0.115,-0.589C0.105,-0.6 0.1,-0.613 0.1,-0.629C0.1,-0.645 0.105,-0.659 0.115,-0.67C0.126,-0.681 0.14,-0.686 0.156,-0.686C0.173,-0.686 0.186,-0.681 0.197,-0.67C0.207,-0.659 0.212,-0.646 0.212,-0.629ZM0.287,-0L0.025,-0L0.025,-0.055C0.054,-0.055 0.074,-0.056 0.085,-0.059C0.103,-0.063 0.112,-0.073 0.112,-0.087L0.112,-0.396C0.112,-0.411 0.103,-0.42 0.085,-0.425C0.074,-0.427 0.054,-0.429 0.025,-0.429L0.025,-0.483L0.2,-0.483L0.2,-0.087C0.2,-0.073 0.209,-0.063 0.227,-0.059C0.238,-0.056 0.258,-0.055 0.287,-0.055L0.287,-0Z" style="fill:rgb(0,109,220);fill-rule:nonzero;"/>
        </g>
    </g>
    <g transform="matrix(0.690193,0,0,0.690193,-146.024,-134.461)">
        <g transform="matrix(54.1667,0,0,54.1667,237.43,471.252)">
            <path d="M0.188,-0.255L0.292,-0.255L0.311,-0.4L0.207,-0.4L0.188,-0.255ZM0.153,-0L0.093,-0L0.119,-0.196L0.037,-0.196L0.037,-0.255L0.127,-0.255L0.146,-0.4L0.061,-0.4L0.061,-0.459L0.156,-0.459L0.182,-0.65L0.24,-0.65L0.215,-0.459L0.319,-0.459L0.345,-0.65L0.404,-0.65L0.378,-0.459L0.46,-0.459L0.46,-0.4L0.37,-0.4L0.352,-0.255L0.438,-0.255L0.438,-0.196L0.343,-0.196L0.316,-0L0.257,-0L0.283,-0.196L0.179,-0.196L0.153,-0Z" style="fill:rgb(0,109,220);fill-opacity:0.77;fill-rule:nonzero;"/>
        </g>
        <g transform="matrix(54.1667,0,0,54.1667,275.807,471.252)">
            <path d="M0.355,-0.135C0.355,-0.092 0.34,-0.057 0.308,-0.03C0.275,-0.003 0.231,0.011 0.174,0.011C0.122,0.011 0.077,-0 0.039,-0.023L0.039,-0.149L0.093,-0.149C0.093,-0.102 0.099,-0.075 0.11,-0.066C0.116,-0.065 0.121,-0.063 0.126,-0.062C0.144,-0.057 0.16,-0.055 0.176,-0.055C0.239,-0.055 0.271,-0.079 0.271,-0.127C0.271,-0.148 0.264,-0.165 0.25,-0.178C0.236,-0.191 0.213,-0.204 0.181,-0.216C0.095,-0.247 0.052,-0.293 0.052,-0.353C0.052,-0.393 0.067,-0.426 0.097,-0.453C0.128,-0.481 0.169,-0.495 0.219,-0.495C0.266,-0.495 0.305,-0.485 0.338,-0.465L0.338,-0.339L0.283,-0.339C0.283,-0.388 0.277,-0.417 0.263,-0.423C0.248,-0.427 0.232,-0.429 0.217,-0.429C0.192,-0.429 0.172,-0.423 0.158,-0.41C0.144,-0.398 0.137,-0.382 0.137,-0.363C0.137,-0.344 0.144,-0.328 0.159,-0.316C0.171,-0.305 0.195,-0.293 0.229,-0.281C0.313,-0.249 0.355,-0.2 0.355,-0.135Z" style="fill:rgb(0,109,220);fill-opacity:0.77;fill-rule:nonzero;"/>
        </g>
        <g transform="matrix(54.1667,0,0,54.1667,297.257,471.252)">
            <path d="M0.511,-0.246C0.511,-0.163 0.485,-0.098 0.434,-0.051C0.389,-0.009 0.335,0.011 0.271,0.011L0.27,0.011C0.199,0.011 0.142,-0.013 0.099,-0.061C0.058,-0.107 0.038,-0.166 0.038,-0.238C0.038,-0.312 0.059,-0.373 0.102,-0.421C0.146,-0.47 0.205,-0.495 0.278,-0.495C0.349,-0.495 0.406,-0.471 0.449,-0.423C0.49,-0.377 0.511,-0.318 0.511,-0.246ZM0.419,-0.243C0.419,-0.292 0.409,-0.333 0.387,-0.367C0.36,-0.409 0.323,-0.429 0.274,-0.429C0.226,-0.429 0.189,-0.409 0.162,-0.369C0.138,-0.334 0.125,-0.291 0.125,-0.241C0.125,-0.193 0.137,-0.151 0.161,-0.116C0.188,-0.075 0.225,-0.055 0.271,-0.055L0.272,-0.055C0.32,-0.055 0.357,-0.076 0.384,-0.116C0.408,-0.151 0.419,-0.194 0.419,-0.243Z" style="fill:rgb(0,109,220);fill-opacity:0.77;fill-rule:nonzero;"/>
        </g>
        <g transform="matrix(54.1667,0,0,54.1667,326.985,471.252)">
            <path d="M0.35,-0.707L0.338,-0.639C0.321,-0.646 0.303,-0.65 0.282,-0.65C0.219,-0.65 0.188,-0.603 0.188,-0.51L0.188,-0.483L0.305,-0.483L0.305,-0.417L0.188,-0.417L0.188,-0.087C0.188,-0.073 0.198,-0.063 0.216,-0.059C0.227,-0.056 0.247,-0.055 0.276,-0.055L0.276,-0L0.014,-0L0.014,-0.055C0.043,-0.055 0.063,-0.056 0.074,-0.059C0.092,-0.063 0.101,-0.072 0.101,-0.086L0.101,-0.417L0.034,-0.417L0.034,-0.483L0.101,-0.483L0.101,-0.507C0.101,-0.583 0.12,-0.64 0.157,-0.676C0.188,-0.706 0.227,-0.721 0.275,-0.721C0.304,-0.721 0.329,-0.716 0.35,-0.707Z" style="fill:rgb(0,109,220);fill-opacity:0.77;fill-rule:nonzero;"/>
        </g>
        <g transform="matrix(54.1667,0,0,54.1667,343.859,471.252)">
            <path d="M0.305,-0.417L0.179,-0.417L0.179,-0.156C0.179,-0.093 0.201,-0.062 0.245,-0.062C0.264,-0.062 0.281,-0.064 0.295,-0.068L0.3,-0.002C0.279,0.007 0.253,0.011 0.222,0.011C0.136,0.011 0.093,-0.043 0.093,-0.153L0.093,-0.417L0.018,-0.417L0.018,-0.484L0.093,-0.484L0.093,-0.573L0.179,-0.6L0.179,-0.484L0.305,-0.484L0.305,-0.417Z" style="fill:rgb(0,109,220);fill-opacity:0.77;fill-rule:nonzero;"/>
        </g>
        <g transform="matrix(54.1667,0,0,54.1667,361.765,471.252)">
            <path d="M0.84,-0.429C0.794,-0.429 0.767,-0.423 0.758,-0.413L0.625,-0L0.545,-0L0.472,-0.231C0.453,-0.29 0.438,-0.343 0.429,-0.39L0.427,-0.39C0.416,-0.34 0.402,-0.286 0.383,-0.23L0.305,-0L0.225,-0L0.1,-0.412C0.092,-0.423 0.064,-0.429 0.018,-0.429L0.018,-0.483L0.256,-0.483L0.256,-0.429C0.22,-0.429 0.196,-0.426 0.185,-0.421L0.233,-0.238C0.248,-0.184 0.26,-0.132 0.269,-0.084L0.271,-0.084C0.281,-0.124 0.295,-0.175 0.315,-0.237L0.394,-0.483L0.468,-0.483L0.543,-0.242C0.56,-0.188 0.574,-0.135 0.585,-0.084L0.588,-0.084C0.596,-0.13 0.609,-0.182 0.625,-0.241L0.677,-0.421C0.666,-0.426 0.642,-0.429 0.607,-0.429L0.607,-0.483L0.84,-0.483L0.84,-0.429Z" style="fill:rgb(0,109,220);fill-opacity:0.77;fill-rule:nonzero;"/>
        </g>
        <g transform="matrix(54.1667,0,0,54.1667,408.103,471.252)">
            <path d="M0.5,-0L0.34,-0L0.333,-0.061L0.33,-0.061C0.296,-0.013 0.247,0.011 0.182,0.011C0.136,0.011 0.099,-0.003 0.072,-0.032C0.047,-0.058 0.035,-0.09 0.035,-0.128C0.035,-0.187 0.06,-0.231 0.11,-0.262C0.16,-0.294 0.232,-0.309 0.325,-0.308L0.325,-0.318C0.325,-0.393 0.289,-0.43 0.215,-0.43C0.19,-0.43 0.165,-0.426 0.142,-0.418C0.13,-0.41 0.124,-0.382 0.124,-0.335L0.069,-0.335L0.069,-0.452C0.113,-0.48 0.166,-0.495 0.229,-0.495C0.351,-0.495 0.413,-0.429 0.413,-0.296L0.413,-0.116C0.413,-0.103 0.413,-0.092 0.413,-0.082C0.416,-0.064 0.445,-0.055 0.5,-0.055L0.5,-0ZM0.327,-0.163L0.327,-0.247C0.191,-0.25 0.123,-0.213 0.123,-0.138C0.123,-0.111 0.131,-0.09 0.147,-0.075C0.162,-0.061 0.181,-0.054 0.205,-0.054C0.232,-0.054 0.257,-0.062 0.278,-0.076C0.3,-0.091 0.315,-0.111 0.323,-0.137C0.326,-0.145 0.327,-0.153 0.327,-0.163Z" style="fill:rgb(0,109,220);fill-opacity:0.77;fill-rule:nonzero;"/>
        </g>
        <g transform="matrix(54.1667,0,0,54.1667,436.535,471.252)">
            <path d="M0.351,-0.409C0.343,-0.411 0.333,-0.412 0.321,-0.412C0.291,-0.412 0.265,-0.402 0.244,-0.381C0.223,-0.36 0.209,-0.333 0.203,-0.299C0.201,-0.287 0.2,-0.273 0.2,-0.258L0.2,-0.087C0.2,-0.073 0.209,-0.063 0.227,-0.059C0.238,-0.056 0.258,-0.055 0.287,-0.055L0.287,-0L0.025,-0L0.025,-0.055C0.054,-0.055 0.074,-0.056 0.085,-0.059C0.103,-0.063 0.112,-0.073 0.112,-0.087L0.112,-0.333C0.112,-0.358 0.112,-0.382 0.112,-0.403C0.108,-0.42 0.079,-0.429 0.025,-0.429L0.025,-0.483L0.186,-0.483L0.189,-0.389L0.192,-0.389C0.203,-0.421 0.221,-0.447 0.246,-0.466C0.27,-0.485 0.297,-0.495 0.327,-0.495C0.336,-0.495 0.344,-0.494 0.351,-0.492L0.351,-0.409Z" style="fill:rgb(0,109,220);fill-opacity:0.77;fill-rule:nonzero;"/>
        </g>
        <g transform="matrix(54.1667,0,0,54.1667,456.345,471.252)">
            <path d="M0.464,-0.267C0.464,-0.25 0.463,-0.236 0.46,-0.226L0.122,-0.226C0.123,-0.173 0.138,-0.132 0.167,-0.103C0.195,-0.073 0.236,-0.058 0.288,-0.058C0.337,-0.058 0.382,-0.066 0.421,-0.083L0.437,-0.02C0.392,0.001 0.338,0.011 0.275,0.011C0.202,0.011 0.144,-0.011 0.101,-0.057C0.059,-0.101 0.038,-0.16 0.038,-0.234C0.038,-0.307 0.057,-0.368 0.095,-0.416C0.137,-0.469 0.194,-0.495 0.265,-0.495C0.335,-0.495 0.388,-0.468 0.424,-0.414C0.451,-0.373 0.464,-0.324 0.464,-0.267ZM0.379,-0.289C0.38,-0.324 0.372,-0.354 0.355,-0.381C0.334,-0.415 0.302,-0.432 0.258,-0.432C0.217,-0.432 0.185,-0.416 0.16,-0.383C0.139,-0.356 0.127,-0.325 0.123,-0.289L0.379,-0.289Z" style="fill:rgb(0,109,220);fill-opacity:0.77;fill-rule:nonzero;"/>
        </g>
        <g transform="matrix(54.1667,0,0,54.1667,494.96,471.252)">
            <path d="M0.464,-0.267C0.464,-0.25 0.463,-0.236 0.46,-0.226L0.122,-0.226C0.123,-0.173 0.138,-0.132 0.167,-0.103C0.195,-0.073 0.236,-0.058 0.288,-0.058C0.337,-0.058 0.382,-0.066 0.421,-0.083L0.437,-0.02C0.392,0.001 0.338,0.011 0.275,0.011C0.202,0.011 0.144,-0.011 0.101,-0.057C0.059,-0.101 0.038,-0.16 0.038,-0.234C0.038,-0.307 0.057,-0.368 0.095,-0.416C0.137,-0.469 0.194,-0.495 0.265,-0.495C0.335,-0.495 0.388,-0.468 0.424,-0.414C0.451,-0.373 0.464,-0.324 0.464,-0.267ZM0.379,-0.289C0.38,-0.324 0.372,-0.354 0.355,-0.381C0.334,-0.415 0.302,-0.432 0.258,-0.432C0.217,-0.432 0.185,-0.416 0.16,-0.383C0.139,-0.356 0.127,-0.325 0.123,-0.289L0.379,-0.289Z" style="fill:rgb(0,109,220);fill-opacity:0.77;fill-rule:nonzero;"/>
        </g>
        <g transform="matrix(54.1667,0,0,54.1667,522.096,471.252)">
            <path d="M0.611,-0L0.436,-0L0.436,-0.279C0.436,-0.375 0.399,-0.422 0.324,-0.422C0.297,-0.422 0.272,-0.413 0.25,-0.396C0.229,-0.379 0.214,-0.358 0.206,-0.332C0.202,-0.32 0.2,-0.306 0.2,-0.292L0.2,-0.087C0.2,-0.073 0.209,-0.063 0.227,-0.059C0.238,-0.056 0.258,-0.055 0.287,-0.055L0.287,-0L0.025,-0L0.025,-0.055C0.054,-0.055 0.074,-0.056 0.085,-0.059C0.103,-0.063 0.112,-0.073 0.112,-0.087L0.112,-0.353C0.112,-0.37 0.112,-0.386 0.112,-0.402C0.108,-0.42 0.079,-0.429 0.025,-0.429L0.025,-0.483L0.186,-0.483L0.191,-0.404L0.193,-0.404C0.207,-0.429 0.226,-0.45 0.252,-0.466C0.282,-0.485 0.316,-0.495 0.354,-0.495C0.396,-0.495 0.433,-0.481 0.463,-0.454C0.503,-0.418 0.523,-0.363 0.523,-0.289L0.523,-0.087C0.523,-0.073 0.533,-0.063 0.551,-0.059C0.562,-0.056 0.582,-0.055 0.611,-0.055L0.611,-0Z" style="fill:rgb(0,109,220);fill-opacity:0.77;fill-rule:nonzero;"/>
        </g>
        <g transform="matrix(54.1667,0,0,54.1667,556.532,471.252)">
            <path d="M0.453,-0.063C0.453,0.026 0.439,0.091 0.412,0.132C0.379,0.182 0.321,0.207 0.238,0.207C0.174,0.207 0.124,0.196 0.085,0.173L0.097,0.108C0.134,0.129 0.179,0.14 0.23,0.14C0.322,0.14 0.369,0.083 0.373,-0.032L0.375,-0.104L0.372,-0.104C0.343,-0.036 0.294,-0.002 0.224,-0.002C0.177,-0.002 0.137,-0.019 0.104,-0.053C0.073,-0.084 0.053,-0.123 0.043,-0.169C0.04,-0.189 0.038,-0.21 0.038,-0.234C0.038,-0.31 0.06,-0.373 0.105,-0.421C0.151,-0.471 0.212,-0.496 0.289,-0.496C0.345,-0.496 0.399,-0.485 0.451,-0.463L0.453,-0.063ZM0.369,-0.252L0.369,-0.413C0.345,-0.424 0.317,-0.43 0.286,-0.43C0.235,-0.43 0.194,-0.41 0.164,-0.369C0.137,-0.332 0.124,-0.287 0.124,-0.234C0.124,-0.215 0.125,-0.198 0.127,-0.184C0.142,-0.107 0.18,-0.068 0.243,-0.068C0.282,-0.068 0.313,-0.09 0.338,-0.133C0.358,-0.17 0.369,-0.21 0.369,-0.252Z" style="fill:rgb(0,109,220);fill-opacity:0.77;fill-rule:nonzero;"/>
        </g>
        <g transform="matrix(54.1667,0,0,54.1667,584.805,471.252)">
            <path d="M0.212,-0.629C0.212,-0.613 0.207,-0.6 0.197,-0.589C0.186,-0.578 0.173,-0.573 0.156,-0.573L0.154,-0.573C0.138,-0.573 0.125,-0.578 0.115,-0.589C0.105,-0.6 0.1,-0.613 0.1,-0.629C0.1,-0.645 0.105,-0.659 0.115,-0.67C0.126,-0.681 0.14,-0.686 0.156,-0.686C0.173,-0.686 0.186,-0.681 0.197,-0.67C0.207,-0.659 0.212,-0.646 0.212,-0.629ZM0.287,-0L0.025,-0L0.025,-0.055C0.054,-0.055 0.074,-0.056 0.085,-0.059C0.103,-0.063 0.112,-0.073 0.112,-0.087L0.112,-0.396C0.112,-0.411 0.103,-0.42 0.085,-0.425C0.074,-0.427 0.054,-0.429 0.025,-0.429L0.025,-0.483L0.2,-0.483L0.2,-0.087C0.2,-0.073 0.209,-0.063 0.227,-0.059C0.238,-0.056 0.258,-0.055 0.287,-0.055L0.287,-0Z" style="fill:rgb(0,109,220);fill-opacity:0.77;fill-rule:nonzero;"/>
        </g>
        <g transform="matrix(54.1667,0,0,54.1667,601.706,471.252)">
            <path d="M0.611,-0L0.436,-0L0.436,-0.279C0.436,-0.375 0.399,-0.422 0.324,-0.422C0.297,-0.422 0.272,-0.413 0.25,-0.396C0.229,-0.379 0.214,-0.358 0.206,-0.332C0.202,-0.32 0.2,-0.306 0.2,-0.292L0.2,-0.087C0.2,-0.073 0.209,-0.063 0.227,-0.059C0.238,-0.056 0.258,-0.055 0.287,-0.055L0.287,-0L0.025,-0L0.025,-0.055C0.054,-0.055 0.074,-0.056 0.085,-0.059C0.103,-0.063 0.112,-0.073 0.112,-0.087L0.112,-0.353C0.112,-0.37 0.112,-0.386 0.112,-0.402C0.108,-0.42 0.079,-0.429 0.025,-0.429L0.025,-0.483L0.186,-0.483L0.191,-0.404L0.193,-0.404C0.207,-0.429 0.226,-0.45 0.252,-0.466C0.282,-0.485 0.316,-0.495 0.354,-0.495C0.396,-0.495 0.433,-0.481 0.463,-0.454C0.503,-0.418 0.523,-0.363 0.523,-0.289L0.523,-0.087C0.523,-0.073 0.533,-0.063 0.551,-0.059C0.562,-0.056 0.582,-0.055 0.611,-0.055L0.611,-0Z" style="fill:rgb(0,109,220);fill-opacity:0.77;fill-rule:nonzero;"/>
        </g>
        <g transform="matrix(54.1667,0,0,54.1667,636.142,471.252)">
            <path d="M0.464,-0.267C0.464,-0.25 0.463,-0.236 0.46,-0.226L0.122,-0.226C0.123,-0.173 0.138,-0.132 0.167,-0.103C0.195,-0.073 0.236,-0.058 0.288,-0.058C0.337,-0.058 0.382,-0.066 0.421,-0.083L0.437,-0.02C0.392,0.001 0.338,0.011 0.275,0.011C0.202,0.011 0.144,-0.011 0.101,-0.057C0.059,-0.101 0.038,-0.16 0.038,-0.234C0.038,-0.307 0.057,-0.368 0.095,-0.416C0.137,-0.469 0.194,-0.495 0.265,-0.495C0.335,-0.495 0.388,-0.468 0.424,-0.414C0.451,-0.373 0.464,-0.324 0.464,-0.267ZM0.379,-0.289C0.38,-0.324 0.372,-0.354 0.355,-0.381C0.334,-0.415 0.302,-0.432 0.258,-0.432C0.217,-0.432 0.185,-0.416 0.16,-0.383C0.139,-0.356 0.127,-0.325 0.123,-0.289L0.379,-0.289Z" style="fill:rgb(0,109,220);fill-opacity:0.77;fill-rule:nonzero;"/>
        </g>
        <g transform="matrix(54.1667,0,0,54.1667,663.278,471.252)">
            <path d="M0.464,-0.267C0.464,-0.25 0.463,-0.236 0.46,-0.226L0.122,-0.226C0.123,-0.173 0.138,-0.132 0.167,-0.103C0.195,-0.073 0.236,-0.058 0.288,-0.058C0.337,-0.058 0.382,-0.066 0.421,-0.083L0.437,-0.02C0.392,0.001 0.338,0.011 0.275,0.011C0.202,0.011 0.144,-0.011 0.101,-0.057C0.059,-0.101 0.038,-0.16 0.038,-0.234C0.038,-0.307 0.057,-0.368 0.095,-0.416C0.137,-0.469 0.194,-0.495 0.265,-0.495C0.335,-0.495 0.388,-0.468 0.424,-0.414C0.451,-0.373 0.464,-0.324 0.464,-0.267ZM0.379,-0.289C0.38,-0.324 0.372,-0.354 0.355,-0.381C0.334,-0.415 0.302,-0.432 0.258,-0.432C0.217,-0.432 0.185,-0.416 0.16,-0.383C0.139,-0.356 0.127,-0.325 0.123,-0.289L0.379,-0.289Z" style="fill:rgb(0,109,220);fill-opacity:0.77;fill-rule:nonzero;"/>
        </g>
        <g transform="matrix(54.1667,0,0,54.1667,690.415,471.252)">
            <path d="M0.351,-0.409C0.343,-0.411 0.333,-0.412 0.321,-0.412C0.291,-0.412 0.265,-0.402 0.244,-0.381C0.223,-0.36 0.209,-0.333 0.203,-0.299C0.201,-0.287 0.2,-0.273 0.2,-0.258L0.2,-0.087C0.2,-0.073 0.209,-0.063 0.227,-0.059C0.238,-0.056 0.258,-0.055 0.287,-0.055L0.287,-0L0.025,-0L0.025,-0.055C0.054,-0.055 0.074,-0.056 0.085,-0.059C0.103,-0.063 0.112,-0.073 0.112,-0.087L0.112,-0.333C0.112,-0.358 0.112,-0.382 0.112,-0.403C0.108,-0.42 0.079,-0.429 0.025,-0.429L0.025,-0.483L0.186,-0.483L0.189,-0.389L0.192,-0.389C0.203,-0.421 0.221,-0.447 0.246,-0.466C0.27,-0.485 0.297,-0.495 0.327,-0.495C0.336,-0.495 0.344,-0.494 0.351,-0.492L0.351,-0.409Z" style="fill:rgb(0,109,220);fill-opacity:0.77;fill-rule:nonzero;"/>
        </g>
    </g>
    <g transform="matrix(0.990154,0,0,0.821007,-79.4529,-87.4349)">
        <rect x="82.263" y="288.736" width="362.406" height="76.913" style="fill:none;stroke:rgb(75,189,255);stroke-opacity:0.63;stroke-width:4.4px;stroke-dasharray:4.4,8.8,13.19,4.4;stroke-dashoffset:4.4;"/>
    </g>
    <g id="Inner-Rectangle" serif:id="Inner Rectangle" transform="matrix(0.94456,0,0,0.652023,-67.9891,-32.1444)">
        <rect x="82.263" y="288.736" width="362.406" height="76.913" style="fill:none;stroke:rgb(75,189,255);stroke-opacity:0.31;stroke-width:3.29px;stroke-dasharray:3.29,6.57,9.86,9.86;stroke-dashoffset:13.14;"/>
    </g>
</svg>
