<?xml version="1.0" encoding="UTF-8" standalone="no"?>
<!DOCTYPE svg PUBLIC "-//W3C//DTD SVG 1.1//EN" "http://www.w3.org/Graphics/SVG/1.1/DTD/svg11.dtd">
<svg width="100%" height="100%" viewBox="0 0 1000 1000" version="1.1" xmlns="http://www.w3.org/2000/svg" xmlns:xlink="http://www.w3.org/1999/xlink" xml:space="preserve" xmlns:serif="http://www.serif.com/" style="fill-rule:evenodd;clip-rule:evenodd;stroke-linecap:round;stroke-linejoin:round;stroke-miterlimit:1.5;">
    <g id="Layer1">
        <g transform="matrix(1.13653,0,0,1.39806,-53.7239,-189.399)">
            <path d="M823.777,435.499C823.777,316.132 704.565,219.221 557.729,219.221L416.681,219.221C269.845,219.221 150.633,316.132 150.633,435.499L150.633,550.72C150.633,670.087 269.845,766.998 416.681,766.998L557.729,766.998C704.565,766.998 823.777,670.087 823.777,550.72L823.777,435.499Z" style="fill:none;stroke:rgb(0,210,129);stroke-width:14.72px;"/>
        </g>
        <g transform="matrix(1.02527,0,0,1.26021,0.484321,-121.42)">
            <path d="M823.777,356.133C823.777,280.569 748.37,219.221 655.491,219.221L318.919,219.221C226.04,219.221 150.633,280.569 150.633,356.133L150.633,630.086C150.633,705.65 226.04,766.998 318.919,766.998L655.491,766.998C748.37,766.998 823.777,705.65 823.777,630.086L823.777,356.133Z" style="fill:none;stroke:rgb(61,197,255);stroke-width:16.32px;"/>
        </g>
        <g transform="matrix(1,0,0,1,-96.9203,60.1257)">
            <g transform="matrix(125,0,0,125,300.17,486.281)">
                <path d="M0.239,-0.371C0.239,-0.343 0.244,-0.318 0.253,-0.294C0.262,-0.27 0.275,-0.249 0.292,-0.231C0.309,-0.213 0.329,-0.199 0.352,-0.189C0.375,-0.179 0.4,-0.174 0.428,-0.174C0.456,-0.174 0.481,-0.179 0.504,-0.189C0.527,-0.199 0.547,-0.213 0.564,-0.231C0.581,-0.249 0.594,-0.27 0.604,-0.294C0.613,-0.318 0.618,-0.343 0.618,-0.371C0.618,-0.398 0.613,-0.424 0.604,-0.448C0.594,-0.472 0.581,-0.494 0.564,-0.512C0.547,-0.53 0.527,-0.544 0.504,-0.554C0.481,-0.564 0.456,-0.57 0.428,-0.57C0.4,-0.57 0.375,-0.564 0.352,-0.554C0.329,-0.544 0.309,-0.53 0.292,-0.512C0.275,-0.494 0.262,-0.472 0.253,-0.448C0.244,-0.424 0.239,-0.398 0.239,-0.371ZM0.046,-0.371C0.046,-0.406 0.05,-0.44 0.06,-0.472C0.068,-0.505 0.081,-0.535 0.098,-0.564C0.115,-0.592 0.135,-0.618 0.158,-0.642C0.181,-0.665 0.207,-0.685 0.235,-0.701C0.263,-0.718 0.294,-0.731 0.326,-0.74C0.359,-0.749 0.393,-0.754 0.428,-0.754C0.463,-0.754 0.497,-0.749 0.53,-0.74C0.562,-0.731 0.593,-0.718 0.621,-0.701C0.649,-0.685 0.675,-0.665 0.699,-0.642C0.722,-0.618 0.742,-0.592 0.758,-0.564C0.775,-0.535 0.788,-0.505 0.797,-0.472C0.806,-0.44 0.81,-0.406 0.811,-0.371C0.81,-0.335 0.806,-0.301 0.797,-0.269C0.788,-0.236 0.775,-0.206 0.758,-0.178C0.742,-0.15 0.722,-0.124 0.699,-0.101C0.675,-0.078 0.649,-0.058 0.621,-0.041C0.593,-0.024 0.562,-0.012 0.53,-0.003C0.497,0.007 0.463,0.011 0.428,0.011C0.393,0.011 0.359,0.007 0.326,-0.003C0.294,-0.012 0.263,-0.024 0.235,-0.041C0.207,-0.058 0.181,-0.078 0.158,-0.101C0.135,-0.124 0.115,-0.15 0.098,-0.178C0.081,-0.206 0.068,-0.236 0.06,-0.269C0.05,-0.301 0.046,-0.335 0.046,-0.371Z" style="fill:rgb(61,197,255);fill-rule:nonzero;"/>
            </g>
            <g transform="matrix(125,0,0,125,406.733,486.281)">
                <path d="M0.122,-0.721C0.123,-0.727 0.125,-0.732 0.129,-0.736C0.133,-0.74 0.139,-0.743 0.146,-0.743L0.319,-0.743C0.331,-0.743 0.339,-0.736 0.343,-0.724L0.479,-0.27L0.616,-0.724C0.621,-0.736 0.629,-0.743 0.642,-0.743L0.813,-0.743C0.818,-0.743 0.824,-0.74 0.829,-0.736C0.834,-0.732 0.836,-0.727 0.837,-0.721C0.849,-0.603 0.861,-0.487 0.873,-0.371C0.885,-0.256 0.897,-0.139 0.909,-0.022L0.909,-0.02C0.909,-0.007 0.901,-0 0.887,-0L0.745,-0C0.73,-0 0.722,-0.007 0.721,-0.022L0.678,-0.409L0.565,-0.02C0.564,-0.016 0.562,-0.012 0.558,-0.008C0.554,-0.003 0.55,-0.001 0.546,-0.001L0.414,-0.001C0.41,-0.001 0.406,-0.003 0.401,-0.007C0.397,-0.012 0.394,-0.016 0.394,-0.02L0.282,-0.408L0.238,-0.022C0.237,-0.007 0.229,-0 0.214,-0L0.072,-0C0.058,-0 0.051,-0.007 0.051,-0.022L0.122,-0.721Z" style="fill:rgb(61,197,255);fill-rule:nonzero;"/>
            </g>
            <g transform="matrix(125,0,0,125,526.795,486.281)">
                <path d="M0.083,-0.721C0.083,-0.727 0.084,-0.732 0.088,-0.736C0.092,-0.74 0.097,-0.743 0.105,-0.743L0.268,-0.743C0.273,-0.743 0.278,-0.741 0.283,-0.739C0.288,-0.737 0.292,-0.733 0.296,-0.727C0.338,-0.659 0.38,-0.591 0.422,-0.525C0.463,-0.459 0.505,-0.391 0.548,-0.323L0.548,-0.724C0.549,-0.73 0.552,-0.734 0.556,-0.738C0.56,-0.741 0.565,-0.743 0.57,-0.743L0.713,-0.743C0.72,-0.743 0.725,-0.741 0.73,-0.737C0.735,-0.733 0.737,-0.728 0.737,-0.721L0.737,-0.02C0.737,-0.013 0.735,-0.008 0.731,-0.005C0.727,-0.002 0.721,-0 0.715,-0L0.555,-0C0.551,-0 0.547,-0.002 0.544,-0.005C0.54,-0.008 0.537,-0.012 0.533,-0.017C0.489,-0.09 0.445,-0.162 0.402,-0.234C0.358,-0.306 0.314,-0.378 0.27,-0.452L0.27,-0.022C0.27,-0.015 0.268,-0.009 0.265,-0.006C0.261,-0.002 0.255,-0 0.247,-0L0.105,-0C0.097,-0 0.091,-0.002 0.088,-0.006C0.084,-0.01 0.083,-0.016 0.083,-0.022L0.083,-0.721Z" style="fill:rgb(61,197,255);fill-rule:nonzero;"/>
            </g>
            <g transform="matrix(125,0,0,125,629.233,486.281)">
                <path d="M0.083,-0.721C0.083,-0.727 0.084,-0.732 0.088,-0.736C0.092,-0.74 0.097,-0.743 0.105,-0.743L0.252,-0.743C0.257,-0.743 0.262,-0.741 0.268,-0.737C0.273,-0.733 0.276,-0.727 0.276,-0.721L0.276,-0.022C0.276,-0.007 0.268,-0 0.252,-0L0.105,-0C0.09,-0 0.083,-0.007 0.083,-0.022L0.083,-0.721Z" style="fill:rgb(61,197,255);fill-rule:nonzero;"/>
            </g>
            <g transform="matrix(125,0,0,125,673.795,486.281)">
                <path d="M0.293,-0.723C0.293,-0.725 0.294,-0.727 0.296,-0.73C0.298,-0.732 0.3,-0.734 0.303,-0.736C0.306,-0.738 0.309,-0.74 0.312,-0.741C0.315,-0.742 0.317,-0.743 0.32,-0.743L0.448,-0.743C0.454,-0.743 0.459,-0.741 0.463,-0.737C0.467,-0.734 0.47,-0.731 0.472,-0.728L0.484,-0.7L0.747,-0.023C0.749,-0.016 0.749,-0.01 0.745,-0.006C0.741,-0.002 0.735,-0 0.726,-0L0.583,-0C0.575,-0 0.569,-0.001 0.565,-0.004C0.561,-0.007 0.557,-0.012 0.555,-0.019C0.548,-0.035 0.542,-0.052 0.536,-0.069C0.529,-0.086 0.523,-0.103 0.517,-0.12L0.251,-0.12L0.213,-0.019C0.208,-0.006 0.2,-0 0.187,-0L0.04,-0C0.033,-0 0.028,-0.002 0.024,-0.005C0.02,-0.008 0.019,-0.013 0.022,-0.02L0.293,-0.723ZM0.384,-0.509C0.378,-0.492 0.371,-0.474 0.365,-0.454C0.358,-0.434 0.352,-0.415 0.346,-0.395C0.339,-0.375 0.333,-0.355 0.326,-0.335C0.32,-0.316 0.313,-0.298 0.307,-0.281L0.461,-0.281L0.384,-0.509Z" style="fill:rgb(0,210,129);fill-rule:nonzero;"/>
            </g>
            <g transform="matrix(125,0,0,125,769.483,486.281)">
                <path d="M0.071,-0.72C0.071,-0.727 0.073,-0.732 0.077,-0.736C0.08,-0.74 0.086,-0.743 0.093,-0.743L0.413,-0.743C0.436,-0.743 0.457,-0.739 0.478,-0.733C0.498,-0.727 0.517,-0.718 0.534,-0.707C0.551,-0.696 0.566,-0.682 0.58,-0.667C0.593,-0.651 0.605,-0.634 0.614,-0.617C0.624,-0.599 0.631,-0.58 0.636,-0.56C0.641,-0.54 0.644,-0.52 0.644,-0.5C0.644,-0.47 0.638,-0.44 0.627,-0.412C0.616,-0.383 0.601,-0.357 0.581,-0.335C0.561,-0.313 0.537,-0.295 0.509,-0.281C0.481,-0.267 0.45,-0.26 0.416,-0.26L0.265,-0.26L0.265,-0.022C0.265,-0.007 0.257,-0 0.242,-0L0.093,-0C0.086,-0 0.081,-0.002 0.077,-0.005C0.073,-0.009 0.071,-0.014 0.071,-0.022L0.071,-0.72ZM0.448,-0.501C0.448,-0.51 0.446,-0.521 0.442,-0.531C0.439,-0.541 0.434,-0.549 0.427,-0.557C0.42,-0.565 0.412,-0.572 0.403,-0.577C0.393,-0.582 0.383,-0.584 0.371,-0.584L0.265,-0.584L0.265,-0.417L0.371,-0.417C0.383,-0.417 0.393,-0.419 0.403,-0.424C0.413,-0.429 0.421,-0.435 0.427,-0.443C0.434,-0.451 0.439,-0.46 0.442,-0.47C0.446,-0.48 0.448,-0.49 0.448,-0.501Z" style="fill:rgb(0,210,129);fill-rule:nonzero;"/>
            </g>
            <g transform="matrix(125,0,0,125,853.42,486.281)">
                <path d="M0.083,-0.721C0.083,-0.727 0.084,-0.732 0.088,-0.736C0.092,-0.74 0.097,-0.743 0.105,-0.743L0.252,-0.743C0.257,-0.743 0.262,-0.741 0.268,-0.737C0.273,-0.733 0.276,-0.727 0.276,-0.721L0.276,-0.022C0.276,-0.007 0.268,-0 0.252,-0L0.105,-0C0.09,-0 0.083,-0.007 0.083,-0.022L0.083,-0.721Z" style="fill:rgb(0,210,129);fill-rule:nonzero;"/>
            </g>
        </g>
    </g>
</svg>
